<svg height="512pt" viewBox="0 0 512 512.15593" width="512pt" xmlns="http://www.w3.org/2000/svg"><path d="m25.664062 239.277344c6.789063.011718 13.300782-2.679688 18.101563-7.484375l104.53125-104.53125c5.417969 4.734375 10.855469 9.761719 16.214844 14.949219-17.242188 9.085937-33.03125 20.691406-46.847657 34.433593h-.0625s-.066406.101563-.109374.136719c-36.898438 36.742188-57.65625 86.664062-57.691407 138.734375-.039062 52.074219 20.648438 102.023437 57.496094 138.820313.117187.109374.179687.273437.304687.375.128907.101562.121094.050781.179688.09375 67.253906 67.070312 172.953125 76.175781 250.683594 21.597656 21.03125 3.75 42.714844.046875 61.304687-10.480469l38.597657 38.589844c6.449218 6.554687 15.917968 9.144531 24.804687 6.789062 8.890625-2.359375 15.832031-9.300781 18.1875-18.191406 2.355469-8.886719-.238281-18.355469-6.796875-24.804687l-38.578125-38.589844c20.074219-35.730469 14.5-80.378906-13.746094-110.078125.042969-1.3125.101563-2.621094.101563-3.933594.03125-52.066406-20.6875-101.996094-57.574219-138.742187-.101563-.085938-.136719-.207032-.238281-.28125-.042969-.027344-.089844-.050782-.136719-.070313-49.726563-49.695313-122.324219-68.839844-190.089844-50.125-11.230469-18.691406-24.601562-36.011719-39.839843-51.609375-49.144532-49.09375-120.996094-73.421875-124.035157-74.4375-3.90625-1.300781-8.183593.371094-10.171875 3.980469-1.984375 3.605469-1.113281 8.117187 2.074219 10.722656 28.308594 23.445313 54.957031 48.824219 79.761719 75.949219l-104.523438 104.496094c-7.3125 7.324218-9.5 18.328124-5.539062 27.890624 3.960937 9.558594 13.289062 15.796876 23.636718 15.800782zm283.308594 200.839844c.398438.546874.800782 1.09375 1.21875 1.632812 1.050782 1.335938 2.140625 2.648438 3.269532 3.933594.144531.160156.261718.339844.410156.492187-13.757813 26.78125-31.191406 43.726563-49.296875 47.789063v-92.671875c9.351562.382812 18.667969 1.425781 27.875 3.121093.359375 1.597657.804687 3.167969 1.246093 4.738282.605469 2.191406 1.308594 4.34375 2.074219 6.46875.34375.9375.667969 1.894531 1.035157 2.824218.628906 1.59375 1.3125 3.15625 2.027343 4.710938.335938.707031.675781 1.40625 1.027344 2.113281 2.570313 5.222657 5.621094 10.191407 9.113281 14.847657zm-231.671875-115.847657h76.476563c.4375 27.214844 4.042968 54.285157 10.734375 80.667969-15.519531 7.605469-29.597657 17.847656-41.617188 30.265625-27.5625-30.597656-43.671875-69.796875-45.59375-110.933594zm170.230469 59.949219c-22.898438.828125-45.503906 5.425781-66.910156 13.601562-5.945313-24.082031-9.191406-48.75-9.675782-73.550781h76.585938zm0 17.066406v92.714844c-25.601562-5.632812-48.308594-36.292969-62.292969-79.761719 19.894531-7.765625 40.949219-12.148437 62.292969-12.964843zm-78.148438 20.265625c7.261719 24.433594 19.75 46.996094 36.601563 66.125-26.492187-7.777343-50.824219-21.574219-71.09375-40.320312 9.980469-10.460938 21.640625-19.183594 34.492187-25.804688zm120.816407-37.546875c0 .851563.074219 1.773438.101562 2.664063-8.511719-1.320313-17.09375-2.136719-25.703125-2.441407v-59.957031h47.113282c-13.921876 16.789063-21.535157 37.921875-21.511719 59.734375zm40.105469-76.800781h-65.707032v-59.945313c22.910156-.84375 45.527344-5.457031 66.9375-13.652343 5.4375 21.964843 8.609375 44.429687 9.460938 67.042969-3.707032 1.945312-7.277344 4.136718-10.691406 6.554687zm-65.707032-77.003906v-92.699219c25.601563 5.617188 48.28125 36.199219 62.292969 79.738281-19.894531 7.765625-40.949219 12.148438-62.292969 12.960938zm41.4375-86.503907c26.566406 7.761719 50.96875 21.574219 71.296875 40.355469-10.007812 10.496094-21.703125 19.242188-34.601562 25.871094-7.238281-24.492187-19.761719-47.101563-36.695313-66.226563zm-58.503906 163.507813h-76.550781c.46875-24.804687 3.667969-49.484375 9.539062-73.589844 21.433594 8.199219 44.074219 12.8125 67.011719 13.644531zm-93.617188 0h-76.742187c1.996094-41.15625 18.117187-80.367187 45.644531-111.027344 12.0625 12.496094 26.214844 22.792969 41.8125 30.429688-6.679687 26.359375-10.277344 53.40625-10.714844 80.597656zm-19.175781-123.210937c12.675781-11.722657 26.988281-21.546876 42.488281-29.160157 1.21875 1.238281 2.414063 2.484375 3.609376 3.722657l1.601562 1.703124c2.21875 2.3125 4.371094 4.59375 6.488281 6.828126-8.066406 13.527343-14.597656 27.917968-19.464843 42.898437-12.949219-6.660156-24.683594-15.445313-34.722657-25.992187zm212.171875 286.199218c-12.855468 7.578125-26.617187 13.503906-40.960937 17.636719 8.226562-8.898437 15.265625-18.828125 20.941406-29.535156 1.128906.855469 2.261719 1.707031 3.414063 2.5625.929687.65625 1.878906 1.28125 2.824218 1.902343 1.484375.964844 2.996094 1.878907 4.53125 2.757813.792969.449219 1.570313.921875 2.371094 1.355469 2.21875 1.1875 4.542969 2.3125 6.878906 3.320312zm148.089844 16.210938c-.003906 3.453125-2.082031 6.5625-5.269531 7.882812-3.1875 1.320313-6.859375.589844-9.296875-1.847656l-36.320313-36.320312c4.378907-3.648438 8.417969-7.6875 12.066407-12.0625l36.316406 36.316406c1.609375 1.597656 2.507812 3.769531 2.503906 6.03125zm-47.027344-59.878906c-1.007812 1.503906-2.109375 2.929687-3.203125 4.34375-.46875.609374-.851562 1.257812-1.382812 1.84375-.929688 1.136718-1.945313 2.183593-2.933594 3.261718-1.554687 1.707032-3.164063 3.277344-4.863281 4.8125-.929688.851563-1.820313 1.707032-2.792969 2.558594-.742187.613281-1.550781 1.152344-2.320313 1.707031-1.261718.957031-2.507812 1.9375-3.832031 2.824219-19.160156 12.808594-43.074219 16.304688-65.097656 9.515625-.742187-.222656-1.453125-.511719-2.175781-.757813-1.53125-.523437-3.046875-1.050781-4.53125-1.707031-.855469-.359375-1.707032-.777343-2.5625-1.171875-1.269532-.578125-2.558594-1.167968-3.761719-1.816406-.9375-.488281-1.84375-1.015625-2.757813-1.542969-1.074218-.625-2.140624-1.265625-3.191406-1.9375-1.050781-.675781-1.929687-1.28125-2.867187-1.957031-.9375-.671875-1.757813-1.277344-2.609375-1.945312-1.015625-.792969-2.023438-1.59375-3.003906-2.429688-.65625-.574219-1.289063-1.167969-1.9375-1.765625-1.085938-1-2.167969-2.007813-3.191407-3.066406-.316406-.324219-.605469-.671875-.914062-.996094-5.390625-5.785156-9.871094-12.355469-13.277344-19.492187-.203125-.433594-.425781-.851563-.621094-1.296876-.667969-1.46875-1.265625-2.960937-1.835937-4.46875-.273438-.710937-.539063-1.410156-.777344-2.125-.476562-1.367187-.914062-2.75-1.3125-4.148437-.261719-.957031-.511719-1.921875-.742188-2.894531-.300781-1.234375-.589843-2.472656-.855468-3.734375-.265625-1.265625-.433594-2.636719-.613282-3.96875-.128906-.992188-.300781-1.980469-.394531-2.980469-.203125-2.320312-.347656-4.734375-.347656-7.183594.046875-42.394531 34.402344-76.753906 76.800781-76.800781 2.5625 0 5.125.132813 7.679688.394531.785156.074219 1.542968.230469 2.320312.332032 1.75.230468 3.488282.453124 5.195313.792968.855469.171875 1.628906.417969 2.449219.605469 1.628906.382813 3.269531.769531 4.855468 1.253906.792969.238281 1.5625.554688 2.347656.855469 1.570313.535156 3.148438 1.074219 4.675782 1.707031.785156.324219 1.542968.722657 2.328125 1.082031 1.460937.664063 2.929687 1.332032 4.335937 2.089844.855469.46875 1.707032 1 2.5625 1.503906 1.253906.734376 2.558594 1.457032 3.726563 2.269532 1.007812.671875 1.972656 1.425781 2.953125 2.148437.980468.726563 1.988281 1.417969 2.9375 2.1875 1.140625.9375 2.226562 1.953125 3.324218 2.949219 28.085938 25.460938 33.285157 67.652344 12.222657 99.167969zm-26.726562-128.707032c-.511719-.222656-1.027344-.425781-1.546875-.640625-2.277344-.9375-4.589844-1.789062-6.9375-2.558593-.382813-.128907-.757813-.273438-1.144531-.394532-2.710938-.824218-5.460938-1.527344-8.242188-2.113281-.503906-.113281-1.023438-.1875-1.535156-.28125-2.277344-.445313-4.578125-.796875-6.914063-1.058594-.757812-.085937-1.515625-.179687-2.285156-.25-2.832031-.203125-5.691406-.382812-8.574219-.382812-8.914062.011719-17.777344 1.300781-26.328125 3.824219-1.152343-22.75-4.550781-45.332032-10.144531-67.414063 15.566406-7.628906 29.6875-17.914063 41.726562-30.386719 27.148438 30.085938 43.242188 68.515625 45.636719 108.96875-4.359375-2.8125-8.945312-5.257812-13.710937-7.3125zm-173.714844-161.023437v93.40625c-21.363281-.820313-42.441406-5.214844-62.351562-13.003907 4.03125-12.816406 9.328124-25.199218 15.8125-36.96875 13.738281 15.257813 23.082031 26.625 23.234374 26.804688.753907.894531 1.6875 1.621094 2.738282 2.132812.28125.125.5625.238282.855468.332032.769532.296875 1.582032.480468 2.40625.539062.195313 0 .375.117188.570313.117188s.53125-.066406.804687-.09375c.269532-.023438.527344-.050782.800782-.101563.871094-.148437 1.714844-.4375 2.5-.851562.433594-.285157.839844-.609375 1.210937-.972657.394531-.269531.765625-.574218 1.109375-.90625.246094-.332031.460938-.6875.648438-1.058593.328125-.445313.613281-.925781.855468-1.425781.136719-.480469.234376-.96875.296876-1.464844.460937-1.421875.402343-2.960938-.160157-4.34375 0-.128906-.191406-.5625-.402343-1.179688l-.113282-.316406-.210937-.585938c-6.917969-18.996093-15.304688-37.421874-25.078125-55.117187 11.300781-2.761719 22.847656-4.417969 34.472656-4.941406zm-162.558594-97.9375c24.675782 12.703125 47.382813 28.910156 67.410156 48.121093 19.085938 19.914063 35.207032 42.46875 47.867188 66.976563l.210938.382813c-14.792969-15.992188-30.523438-31.09375-47.101563-45.226563l-.054687-.066406c-.679688-.570313-1.296876-1.050781-1.96875-1.597657-1.410157-1.152343-2.824219-2.3125-4.265626-3.410156-2.324218-1.828125-4.5625-3.535156-6.726562-5.121094-1.570312-2.167968-3.300781-4.4375-5.121094-6.828124-.960937-1.226563-1.996094-2.472657-3.003906-3.71875-.65625-.855469-1.246094-1.5625-1.933594-2.40625l-.085937-.0625c-14.136719-16.558594-29.238281-32.265626-45.226563-47.042969zm-65.339844 168.796875 103.371094-103.363282c1.339844 1.75 2.679688 3.492188 3.910156 5.199219l.410157.542969c.550781.765625 1.222656 1.4375 1.988281 1.988281 1.882812 1.347657 3.820312 2.851563 5.757812 4.335938l-103.371093 103.371093c-3.335938 3.332032-8.738281 3.332032-12.070313-.003906-3.332031-3.332031-3.332031-8.738281.003906-12.070312zm0 0"/><path d="m384.066406 324.269531c-32.992187 0-59.734375 26.746094-59.734375 59.734375 0 32.988282 26.742188 59.734375 59.734375 59.734375 32.988282 0 59.730469-26.746093 59.730469-59.734375-.035156-32.972656-26.757813-59.695312-59.730469-59.734375zm0 102.402344c-23.566406 0-42.667968-19.105469-42.667968-42.667969s19.101562-42.667968 42.667968-42.667968c23.5625 0 42.664063 19.105468 42.664063 42.667968-.027344 23.550782-19.113281 42.636719-42.664063 42.667969zm0 0"/><path d="m213.398438 102.402344c4.710937 0 8.53125-3.820313 8.53125-8.53125v-17.066406c0-4.714844-3.820313-8.535157-8.53125-8.535157-4.714844 0-8.535157 3.820313-8.535157 8.535157v17.066406c0 4.710937 3.820313 8.53125 8.535157 8.53125zm0 0"/><path d="m247.53125 102.402344c2.261719 0 4.433594-.898438 6.035156-2.5l8.53125-8.53125c3.234375-3.347656 3.1875-8.671875-.105468-11.964844-3.289063-3.289062-8.613282-3.335938-11.960938-.101562l-8.53125 8.53125c-2.441406 2.441406-3.171875 6.113281-1.851562 9.300781 1.320312 3.1875 4.433593 5.265625 7.882812 5.265625zm0 0"/></svg>